<svg width="345" height="30" viewBox="0 0 345 30" fill="none" xmlns="http://www.w3.org/2000/svg">
<path d="M344 24C344.552 24 345 23.5523 345 23C345 22.4477 344.552 22 344 22V24ZM1 22C0.447715 22 0 22.4477 0 23C0 23.5523 0.447715 24 1 24V22ZM1.00498 24C1.55726 24 2.00498 23.5523 2.00498 23C2.00498 22.4477 1.55726 22 1.00498 22V24ZM8.97176 22C8.41948 22 7.97176 22.4477 7.97176 23C7.97176 23.5523 8.41948 24 8.97176 24V22ZM8.98172 24C9.53401 24 9.98172 23.5523 9.98172 23C9.98172 22.4477 9.53401 22 8.98172 22V24ZM16.9485 22C16.3962 22 15.9485 22.4477 15.9485 23C15.9485 23.5523 16.3962 24 16.9485 24V22ZM16.9585 24C17.5108 24 17.9585 23.5523 17.9585 23C17.9585 22.4477 17.5108 22 16.9585 22V24ZM24.9253 22C24.373 22 23.9253 22.4477 23.9253 23C23.9253 23.5523 24.373 24 24.9253 24V22ZM24.9352 24C25.4875 24 25.9352 23.5523 25.9352 23C25.9352 22.4477 25.4875 22 24.9352 22V24ZM32.902 22C32.3497 22 31.902 22.4477 31.902 23C31.902 23.5523 32.3497 24 32.902 24V22ZM32.912 24C33.4642 24 33.912 23.5523 33.912 23C33.912 22.4477 33.4642 22 32.912 22V24ZM40.8787 22C40.3265 22 39.8787 22.4477 39.8787 23C39.8787 23.5523 40.3265 24 40.8787 24V22ZM40.8887 24C41.441 24 41.8887 23.5523 41.8887 23C41.8887 22.4477 41.441 22 40.8887 22V24ZM48.8555 22C48.3032 22 47.8555 22.4477 47.8555 23C47.8555 23.5523 48.3032 24 48.8555 24V22ZM48.8654 24C49.4177 24 49.8654 23.5523 49.8654 23C49.8654 22.4477 49.4177 22 48.8654 22V24ZM56.8322 22C56.2799 22 55.8322 22.4477 55.8322 23C55.8322 23.5523 56.2799 24 56.8322 24V22ZM56.8422 24C57.3945 24 57.8422 23.5523 57.8422 23C57.8422 22.4477 57.3945 22 56.8422 22V24ZM64.809 22C64.2567 22 63.809 22.4477 63.809 23C63.809 23.5523 64.2567 24 64.809 24V22ZM64.8189 24C65.3712 24 65.8189 23.5523 65.8189 23C65.8189 22.4477 65.3712 22 64.8189 22V24ZM72.7857 22C72.2334 22 71.7857 22.4477 71.7857 23C71.7857 23.5523 72.2334 24 72.7857 24V22ZM72.7957 24C73.348 24 73.7957 23.5523 73.7957 23C73.7957 22.4477 73.348 22 72.7957 22V24ZM80.7625 22C80.2102 22 79.7625 22.4477 79.7625 23C79.7625 23.5523 80.2102 24 80.7625 24V22ZM80.7724 24C81.3247 24 81.7724 23.5523 81.7724 23C81.7724 22.4477 81.3247 22 80.7724 22V24ZM88.7392 22C88.1869 22 87.7392 22.4477 87.7392 23C87.7392 23.5523 88.1869 24 88.7392 24V22ZM88.7492 24C89.3015 24 89.7492 23.5523 89.7492 23C89.7492 22.4477 89.3015 22 88.7492 22V24ZM96.716 22C96.1637 22 95.716 22.4477 95.716 23C95.716 23.5523 96.1637 24 96.716 24V22ZM96.7259 24C97.2782 24 97.7259 23.5523 97.7259 23C97.7259 22.4477 97.2782 22 96.7259 22V24ZM104.693 22C104.14 22 103.693 22.4477 103.693 23C103.693 23.5523 104.14 24 104.693 24V22ZM104.703 24C105.255 24 105.703 23.5523 105.703 23C105.703 22.4477 105.255 22 104.703 22V24ZM112.669 22C112.117 22 111.669 22.4477 111.669 23C111.669 23.5523 112.117 24 112.669 24V22ZM112.679 24C113.232 24 113.679 23.5523 113.679 23C113.679 22.4477 113.232 22 112.679 22V24ZM120.646 22C120.094 22 119.646 22.4477 119.646 23C119.646 23.5523 120.094 24 120.646 24V22ZM120.656 24C121.208 24 121.656 23.5523 121.656 23C121.656 22.4477 121.208 22 120.656 22V24ZM128.623 22C128.071 22 127.623 22.4477 127.623 23C127.623 23.5523 128.071 24 128.623 24V22ZM128.633 24C129.185 24 129.633 23.5523 129.633 23C129.633 22.4477 129.185 22 128.633 22V24ZM136.6 22C136.047 22 135.6 22.4477 135.6 23C135.6 23.5523 136.047 24 136.6 24V22ZM136.61 24C137.162 24 137.61 23.5523 137.61 23C137.61 22.4477 137.162 22 136.61 22V24ZM144.576 22C144.024 22 143.576 22.4477 143.576 23C143.576 23.5523 144.024 24 144.576 24V22ZM144.586 24C145.139 24 145.586 23.5523 145.586 23C145.586 22.4477 145.139 22 144.586 22V24ZM152.553 22C152.001 22 151.553 22.4477 151.553 23C151.553 23.5523 152.001 24 152.553 24V22ZM152.563 24C153.115 24 153.563 23.5523 153.563 23C153.563 22.4477 153.115 22 152.563 22V24ZM160.53 22C159.978 22 159.53 22.4477 159.53 23C159.53 23.5523 159.978 24 160.53 24V22ZM160.54 24C161.092 24 161.54 23.5523 161.54 23C161.54 22.4477 161.092 22 160.54 22V24ZM168.507 22C167.954 22 167.507 22.4477 167.507 23C167.507 23.5523 167.954 24 168.507 24V22ZM168.517 24C169.069 24 169.517 23.5523 169.517 23C169.517 22.4477 169.069 22 168.517 22V24ZM176.483 22C175.931 22 175.483 22.4477 175.483 23C175.483 23.5523 175.931 24 176.483 24V22ZM176.493 24C177.046 24 177.493 23.5523 177.493 23C177.493 22.4477 177.046 22 176.493 22V24ZM184.46 22C183.908 22 183.46 22.4477 183.46 23C183.46 23.5523 183.908 24 184.46 24V22ZM184.47 24C185.022 24 185.47 23.5523 185.47 23C185.47 22.4477 185.022 22 184.47 22V24ZM192.437 22C191.885 22 191.437 22.4477 191.437 23C191.437 23.5523 191.885 24 192.437 24V22ZM192.447 24C192.999 24 193.447 23.5523 193.447 23C193.447 22.4477 192.999 22 192.447 22V24ZM200.414 22C199.861 22 199.414 22.4477 199.414 23C199.414 23.5523 199.861 24 200.414 24V22ZM200.424 24C200.976 24 201.424 23.5523 201.424 23C201.424 22.4477 200.976 22 200.424 22V24ZM208.39 22C207.838 22 207.39 22.4477 207.39 23C207.39 23.5523 207.838 24 208.39 24V22ZM208.4 24C208.953 24 209.4 23.5523 209.4 23C209.4 22.4477 208.953 22 208.4 22V24ZM216.367 22C215.815 22 215.367 22.4477 215.367 23C215.367 23.5523 215.815 24 216.367 24V22ZM216.377 24C216.929 24 217.377 23.5523 217.377 23C217.377 22.4477 216.929 22 216.377 22V24ZM224.344 22C223.792 22 223.344 22.4477 223.344 23C223.344 23.5523 223.792 24 224.344 24V22ZM224.354 24C224.906 24 225.354 23.5523 225.354 23C225.354 22.4477 224.906 22 224.354 22V24ZM232.321 22C231.768 22 231.321 22.4477 231.321 23C231.321 23.5523 231.768 24 232.321 24V22ZM232.331 24C232.883 24 233.331 23.5523 233.331 23C233.331 22.4477 232.883 22 232.331 22V24ZM240.297 22C239.745 22 239.297 22.4477 239.297 23C239.297 23.5523 239.745 24 240.297 24V22ZM240.307 24C240.86 24 241.307 23.5523 241.307 23C241.307 22.4477 240.86 22 240.307 22V24ZM248.274 22C247.722 22 247.274 22.4477 247.274 23C247.274 23.5523 247.722 24 248.274 24V22ZM248.284 24C248.836 24 249.284 23.5523 249.284 23C249.284 22.4477 248.836 22 248.284 22V24ZM256.251 22C255.699 22 255.251 22.4477 255.251 23C255.251 23.5523 255.699 24 256.251 24V22ZM256.261 24C256.813 24 257.261 23.5523 257.261 23C257.261 22.4477 256.813 22 256.261 22V24ZM264.228 22C263.675 22 263.228 22.4477 263.228 23C263.228 23.5523 263.675 24 264.228 24V22ZM264.238 24C264.79 24 265.238 23.5523 265.238 23C265.238 22.4477 264.79 22 264.238 22V24ZM272.204 22C271.652 22 271.204 22.4477 271.204 23C271.204 23.5523 271.652 24 272.204 24V22ZM272.214 24C272.767 24 273.214 23.5523 273.214 23C273.214 22.4477 272.767 22 272.214 22V24ZM280.181 22C279.629 22 279.181 22.4477 279.181 23C279.181 23.5523 279.629 24 280.181 24V22ZM280.191 24C280.743 24 281.191 23.5523 281.191 23C281.191 22.4477 280.743 22 280.191 22V24ZM288.158 22C287.606 22 287.158 22.4477 287.158 23C287.158 23.5523 287.606 24 288.158 24V22ZM288.168 24C288.72 24 289.168 23.5523 289.168 23C289.168 22.4477 288.72 22 288.168 22V24ZM296.135 22C295.582 22 295.135 22.4477 295.135 23C295.135 23.5523 295.582 24 296.135 24V22ZM296.145 24C296.697 24 297.145 23.5523 297.145 23C297.145 22.4477 296.697 22 296.145 22V24ZM304.111 22C303.559 22 303.111 22.4477 303.111 23C303.111 23.5523 303.559 24 304.111 24V22ZM304.121 24C304.674 24 305.121 23.5523 305.121 23C305.121 22.4477 304.674 22 304.121 22V24ZM312.088 22C311.536 22 311.088 22.4477 311.088 23C311.088 23.5523 311.536 24 312.088 24V22ZM312.098 24C312.65 24 313.098 23.5523 313.098 23C313.098 22.4477 312.65 22 312.098 22V24ZM320.065 22C319.513 22 319.065 22.4477 319.065 23C319.065 23.5523 319.513 24 320.065 24V22ZM320.075 24C320.627 24 321.075 23.5523 321.075 23C321.075 22.4477 320.627 22 320.075 22V24ZM328.042 22C327.489 22 327.042 22.4477 327.042 23C327.042 23.5523 327.489 24 328.042 24V22ZM328.052 24C328.604 24 329.052 23.5523 329.052 23C329.052 22.4477 328.604 22 328.052 22V24ZM336.018 22C335.466 22 335.018 22.4477 335.018 23C335.018 23.5523 335.466 24 336.018 24V22ZM336.028 24C336.581 24 337.028 23.5523 337.028 23C337.028 22.4477 336.581 22 336.028 22V24ZM343.995 22C343.443 22 342.995 22.4477 342.995 23C342.995 23.5523 343.443 24 343.995 24V22ZM1 24H1.00498V22H1V24ZM8.97176 24H8.98172V22H8.97176V24ZM16.9485 24H16.9585V22H16.9485V24ZM24.9253 24H24.9352V22H24.9253V24ZM32.902 24H32.912V22H32.902V24ZM40.8787 24H40.8887V22H40.8787V24ZM48.8555 24H48.8654V22H48.8555V24ZM56.8322 24H56.8422V22H56.8322V24ZM64.809 24H64.8189V22H64.809V24ZM72.7857 24H72.7957V22H72.7857V24ZM80.7625 24H80.7724V22H80.7625V24ZM88.7392 24H88.7492V22H88.7392V24ZM96.716 24H96.7259V22H96.716V24ZM104.693 24H104.703V22H104.693V24ZM112.669 24H112.679V22H112.669V24ZM120.646 24H120.656V22H120.646V24ZM128.623 24H128.633V22H128.623V24ZM136.6 24H136.61V22H136.6V24ZM144.576 24H144.586V22H144.576V24ZM152.553 24H152.563V22H152.553V24ZM160.53 24H160.54V22H160.53V24ZM168.507 24H168.517V22H168.507V24ZM176.483 24H176.493V22H176.483V24ZM184.46 24H184.47V22H184.46V24ZM192.437 24H192.447V22H192.437V24ZM200.414 24H200.424V22H200.414V24ZM208.39 24H208.4V22H208.39V24ZM216.367 24H216.377V22H216.367V24ZM224.344 24H224.354V22H224.344V24ZM232.321 24H232.331V22H232.321V24ZM240.297 24H240.307V22H240.297V24ZM248.274 24H248.284V22H248.274V24ZM256.251 24H256.261V22H256.251V24ZM264.228 24H264.238V22H264.228V24ZM272.204 24H272.214V22H272.204V24ZM280.181 24H280.191V22H280.181V24ZM288.158 24H288.168V22H288.158V24ZM296.135 24H296.145V22H296.135V24ZM304.111 24H304.121V22H304.111V24ZM312.088 24H312.098V22H312.088V24ZM320.065 24H320.075V22H320.065V24ZM328.042 24H328.052V22H328.042V24ZM336.018 24H336.028V22H336.018V24ZM343.995 24H344V22H343.995V24Z" fill="#0D0D0D"/>
</svg>
