<svg xmlns="http://www.w3.org/2000/svg" width="63" height="53" viewBox="0 0 63 53" fill="none">
    <g clip-path="url(#clip0_219_3617)">
        <path d="M52.3003 40.7186C53.2629 39.0461 53.9765 37.329 54.2293 35.6862C54.5898 33.3521 54.4634 31.0292 52.9916 29.55C50.1112 26.6547 47.0784 27.1639 45.4282 27.8403C39.9276 30.1038 36.564 41.3541 36.5529 45.6951C36.5529 46.405 37.1252 46.9811 37.8351 46.9848C38.545 46.9848 39.1174 46.4125 39.1211 45.7026C39.1285 41.9748 42.2133 31.9398 46.4057 30.219C46.9075 30.0109 48.8959 29.0743 51.1705 31.3637C52.0699 32.2669 51.9287 33.761 51.6908 35.296C50.914 40.332 44.4656 46.9514 41.2693 48.6239C37.6641 50.5045 34.8023 50.7238 32.7656 49.2669C29.3165 46.799 28.6438 40.0607 29.5061 34.4783C29.6362 33.6458 29.8034 32.8169 30.0041 31.9993C41.2024 27.4501 51.3154 21.273 57.8865 14.8655C63.6027 9.29425 63.6361 4.82311 61.9302 2.68604C60.1573 0.46348 55.5784 -0.513999 48.5168 4.0612C40.7378 9.10098 31.2046 18.6565 27.8559 30.0889C26.1165 30.7728 24.3474 31.4158 22.5671 32.0141C16.7097 33.9765 8.7969 34.6047 5.25864 31.3377C3.33342 29.5574 2.84653 26.6808 3.81658 22.782C5.78269 14.8729 17.8432 8.19784 25.782 5.98271C26.4659 5.79316 26.8635 5.08328 26.674 4.39942C26.4807 3.71555 25.7708 3.30672 25.0907 3.50742C17.1519 5.71883 3.67163 12.747 1.33014 22.1576C0.114794 27.0376 0.854408 30.7579 3.52297 33.2221C7.85287 37.2212 16.6242 36.7194 23.3922 34.4486C24.6447 34.0286 25.8935 33.5863 27.1311 33.1217C27.0717 33.4413 27.0159 33.7647 26.9639 34.088C26.0533 39.9827 26.6331 48.0404 31.2678 51.3556C32.3307 52.1175 33.8397 52.7791 35.8764 52.7791C37.653 52.7791 39.8272 52.2773 42.4586 50.9022C43.1499 50.5417 48.829 46.851 52.3003 40.7186ZM49.9217 6.21686C52.9991 4.22473 55.6267 3.3922 57.4702 3.3922C58.6224 3.3922 59.4697 3.71927 59.9269 4.29163C61.0084 5.64821 60.2688 8.95603 56.095 13.0258C50.1298 18.8423 41.0983 24.4768 30.9853 28.8067C34.5942 18.9427 42.9864 10.7066 49.9217 6.21686Z" fill="#FF5526"/>
    </g>
    <defs>
        <clipPath id="clip0_219_3617">
            <rect width="62.1536" height="51.9551" fill="white" transform="translate(0.765625 0.820312)"/>
        </clipPath>
    </defs>
</svg>